<svg width="276" height="276" viewBox="0 0 276 276" fill="none" xmlns="http://www.w3.org/2000/svg">
<g id="arrow-down">
<g id="arrow-down_2">
<g id="Group">
<path id="Vector" d="M80.9363 147.9L132.227 180.67C133.982 181.792 135.984 182.353 137.984 182.353C139.984 182.353 141.985 181.793 143.74 180.67L195.031 147.9C200.007 144.721 201.465 138.109 198.285 133.133C195.107 128.156 188.493 126.702 183.518 129.88L137.984 158.971L92.4513 129.879C87.4771 126.701 80.8634 128.156 77.6843 133.132C74.5036 138.109 75.9607 144.72 80.9363 147.9Z" fill="white"/>
<path id="Vector_2" d="M80.9387 113.704L132.23 146.474C133.985 147.596 135.986 148.157 137.986 148.157C139.986 148.157 141.988 147.597 143.743 146.474L195.034 113.704C200.009 110.525 201.468 103.913 198.287 98.9371C195.107 93.9604 188.496 92.5063 183.52 95.6838L137.986 124.776L92.4537 95.6826C87.4795 92.5047 80.8658 93.9604 77.6867 98.936C74.5076 103.912 75.9631 110.524 80.9387 113.704Z" fill="white"/>
</g>
</g>
</g>
</svg>
