<svg width="193" height="137" viewBox="0 0 193 137" fill="none" xmlns="http://www.w3.org/2000/svg">
<g id="arrow-down">
<g id="Group">
<path id="Vector" d="M7.65413 83.5776L87.1858 134.391C89.9072 136.131 93.0107 137 96.1121 137C99.2131 137 102.317 136.131 105.038 134.391L184.57 83.5776C192.285 78.6481 194.547 68.3951 189.615 60.6799C184.687 52.9626 174.432 50.7079 166.717 55.6352L96.1125 100.744L25.5093 55.6334C17.7963 50.7057 7.54107 52.9626 2.61159 60.6781C-2.32042 68.3951 -0.0610294 78.6459 7.65413 83.5776Z" fill="white"/>
<path id="Vector_2" d="M7.65506 30.5536L87.1867 81.367C89.9081 83.1066 93.0117 83.9757 96.113 83.9757C99.2141 83.9757 102.318 83.1069 105.039 81.367L184.571 30.5536C192.286 25.6241 194.548 15.3711 189.616 7.65554C184.684 -0.0614288 174.433 -2.31613 166.718 2.61083L96.1134 47.7214L25.5102 2.60902C17.7972 -2.31865 7.542 -0.0614274 2.61252 7.65373C-2.31697 15.3689 -0.0601043 25.6216 7.65506 30.5536Z" fill="white"/>
</g>
</g>
</svg>
