<svg width="333" height="327" viewBox="0 0 333 327" fill="none" xmlns="http://www.w3.org/2000/svg">
<g id="Group 1">
<g id="Glove-2">
<g id="006   Glove">
<path id="Shape" d="M170.453 37.7665C181.936 17.0908 199.911 3.15235 221.838 34.728C261.55 91.9154 231.958 179.87 231.958 179.87L189.864 221.842L132.081 250.547C93.9038 232.969 59.2355 191.159 40.3599 165.283L170.453 37.7665Z" fill="#C03A2B"/>
<path id="Shape_2" d="M170.551 177.702L179.573 154.985C180.33 153.232 180.084 151.275 178.932 149.877C177.78 148.478 175.904 147.86 174.035 148.264C172.166 148.667 170.602 150.028 169.951 151.816L159.515 178.073L131.499 179.014C128.695 179.193 126.395 181.53 126.306 184.291C126.217 187.052 128.37 189.238 131.169 189.226L155.405 188.419L146.383 211.136C145.627 212.889 145.872 214.846 147.024 216.244C148.177 217.643 150.053 218.26 151.921 217.857C153.79 217.454 155.355 216.093 156.006 214.305L166.441 188.048L194.458 187.107C196.344 187.099 198.145 186.078 199.158 184.442C200.171 182.807 200.236 180.816 199.326 179.245C198.417 177.675 196.678 176.774 194.788 176.895L170.551 177.702Z" fill="white"/>
<path id="Shape_3" d="M232.1 179.997L266.132 229.003C269.247 233.519 267.902 239.913 263.121 243.316L180.63 301.688C175.831 305.064 169.418 304.16 166.275 299.665L132.242 250.658L232.1 179.997Z" fill="#E64C3C"/>
<path id="Shape_4" d="M178.316 242.428L243.422 196.362L260.434 220.856L195.328 266.923C192.93 268.619 189.718 268.166 188.152 265.911L176.811 249.582C175.245 247.327 175.919 244.124 178.316 242.428Z" fill="#F9EAB0"/>
<path id="Shape_5" d="M170.395 37.6491C174.3 44.124 177.454 51.0429 179.803 58.2855C208.134 142.173 95.9876 197.896 40.2969 165.172L40.2402 165.09C33.762 161.366 28.1564 156.397 23.7298 150.454C-24.0177 86.8253 56.9148 35.5845 56.9148 35.5845C56.9148 35.5845 133.206 -23.4599 170.395 37.6491V37.6491Z" fill="#E64C3C"/>
<path id="Shape_6" d="M57.8695 59.4655C56.9665 58.503 55.6876 57.9598 54.3145 57.9557C52.9414 57.9515 51.5866 58.4867 50.5485 59.4434C34.4725 74.2618 17.723 98.0435 29.2176 127.243C30.2306 129.812 33.224 130.945 35.9037 129.774C36.2591 129.622 36.5982 129.431 36.9141 129.205C38.9469 127.763 39.7824 125.186 38.9242 123.006C29.531 99.155 43.768 79.2166 57.3679 66.6988C58.4061 65.742 59.0424 64.442 59.1365 63.0853C59.2306 61.7285 58.7748 60.4263 57.8695 59.4655V59.4655Z" fill="white"/>
</g>
</g>
</g>
</svg>
