<svg width="388" height="402" viewBox="0 0 388 402" fill="none" xmlns="http://www.w3.org/2000/svg">
<g id="Group 2">
<g id="Glove-1">
<g id="006   Glove">
<path id="Shape" d="M198.68 87.7646C190.407 65.2361 174.087 50.0225 145.29 84.3263C93.1345 146.455 108.108 242.241 108.108 242.241L144.62 288.022L200.03 319.407C243.327 300.377 287.373 254.969 311.924 226.859L198.68 87.7646Z" fill="#C03A2B"/>
<path id="Shape_2" d="M173.041 240.012L167.726 215.268C167.252 213.359 167.868 211.229 169.334 209.711C170.799 208.192 172.882 207.524 174.77 207.968C176.658 208.412 178.052 209.897 178.408 211.844L184.56 240.445L213.802 241.541C216.712 241.742 218.699 244.292 218.288 247.297C217.876 250.302 215.215 252.675 212.28 252.655L186.981 251.715L192.297 276.459C192.77 278.368 192.154 280.498 190.689 282.016C189.223 283.535 187.14 284.203 185.252 283.759C183.364 283.315 181.971 281.83 181.614 279.883L175.463 251.282L146.221 250.186C144.241 250.173 142.537 249.057 141.773 247.275C141.009 245.492 141.306 243.325 142.548 241.618C143.79 239.912 145.78 238.936 147.743 239.072L173.041 240.012Z" fill="white"/>
<path id="Shape_3" d="M108.108 242.241L63.4035 295.494C59.3068 300.401 59.5491 307.364 63.946 311.08L139.882 374.826C144.303 378.513 151.203 377.545 155.326 372.66L200.03 319.407L108.108 242.241Z" fill="#E64C3C"/>
<path id="Shape_4" d="M153.156 310.318L93.2065 259.992L70.8542 286.619L130.804 336.944C133.011 338.797 136.468 338.313 138.526 335.862L153.427 318.111C155.485 315.66 155.363 312.171 153.156 310.318Z" fill="#F9EAB0"/>
<path id="Shape_5" d="M198.68 87.7646C193.396 94.8001 188.818 102.321 185.027 110.196C139.937 201.404 247.473 262.325 311.924 226.859L311.998 226.77C319.481 222.735 326.274 217.342 332.009 210.887C393.776 141.773 318.188 85.8087 318.188 85.8087C318.188 85.8087 248.902 21.3652 198.68 87.7646V87.7646Z" fill="#E64C3C"/>
<path id="Shape_6" d="M312.807 111.884C313.931 110.839 315.373 110.252 316.815 110.251C318.257 110.25 319.582 110.835 320.496 111.879C334.662 128.045 347.894 153.965 330.485 185.709C328.951 188.502 325.601 189.727 323.002 188.446C322.657 188.28 322.336 188.071 322.046 187.825C320.176 186.25 319.77 183.444 321.07 181.074C335.295 155.145 323.997 133.412 312.01 119.756C311.095 118.713 310.665 117.296 310.814 115.82C310.964 114.343 311.681 112.927 312.807 111.884V111.884Z" fill="white"/>
</g>
</g>
</g>
</svg>
